<?xml version="1.0" encoding="utf-8"?><svg viewBox="0 0 32 32" xmlns="http://www.w3.org/2000/svg" xmlns:xlink="http://www.w3.org/1999/xlink"><style>:root>svg{display:none}:root>svg:target{display:block}</style><svg viewBox="0 0 32 32" id="commerce" xmlns="http://www.w3.org/2000/svg"><path fill="#fff" d="M15.987 1.329H16c8.103 0 14.671 6.568 14.671 14.671S24.103 30.671 16 30.671 1.329 24.103 1.329 16c0-8.098 6.561-14.664 14.657-14.671h.001z"/><path fill="#fed136" d="M15.987 32C7.158 31.99.005 24.83.005 16c0-8.837 7.163-16 16-16s16 7.163 16 16c-.01 8.839-7.178 16-16.018 16zm0-29.342C8.626 2.668 2.663 8.638 2.663 16c0 7.369 5.973 13.342 13.342 13.342S29.347 23.368 29.347 16v-.085c0-7.322-5.936-13.258-13.258-13.258h-.108.005z"/><path fill="#fed136" d="M7.46 13.156c0-.842.682-1.524 1.524-1.524h1.723c.03-.11.071-.205.123-.294l-.003.006 1.829-3.167a1.219 1.219 0 112.109 1.224l.003-.006-1.289 2.237h5.041l-1.289-2.237a1.219 1.219 0 012.109-1.223l.003.006 1.829 3.167c.048.083.089.178.117.279l.002.009h1.75a1.524 1.524 0 01.033 3.048H8.986a1.524 1.524 0 01-1.524-1.524zm15.295 11.283H9.244l-.527-9.147h14.565zm-7.366-6.1v3.659c.01.33.28.594.611.594h.019-.001a.602.602 0 00.589-.593V18.34a.61.61 0 10-1.22-.052l.002.054v-.002zm3.659 0v3.659a.61.61 0 101.222 0v-3.659a.61.61 0 10-1.222 0zm-7.318 0v3.677c0 .331.264.599.593.607h.015a.615.615 0 00.615-.593v-3.691a.61.61 0 10-1.222 0z"/></svg><svg viewBox="0 0 32 32" id="resp" xmlns="http://www.w3.org/2000/svg"><path fill="#fff" d="M16.004 1.329c8.105 0 14.676 6.57 14.676 14.676s-6.57 14.676-14.676 14.676c-8.105 0-14.676-6.57-14.676-14.676v-.004c0-8.103 6.568-14.671 14.671-14.671h.005z"/><path fill="#fed136" d="M16.004 32.004h-.022C7.143 32.004-.022 24.839-.022 16S7.143-.004 15.982-.004c8.839 0 16.004 7.165 16.004 16.004v.005c-.013 8.825-7.158 15.977-15.98 16h-.002zm0-29.346h-.022c-7.371 0-13.347 5.976-13.347 13.347s5.976 13.347 13.347 13.347c7.371 0 13.347-5.975 13.347-13.347-.01-7.359-5.967-13.324-13.322-13.347h-.002z"/><path fill="#fed136" d="M10.441 8.731h11.916c.979 0 1.772.793 1.772 1.772v7.766c0 .212-.037.416-.106.605l.004-.012h.102v1.192h-1.772v-9.533H10.441v9.533H8.669v-1.192h.102a1.785 1.785 0 01-.102-.593v-7.748c0-.979.793-1.772 1.772-1.772zM8.669 21.245h15.504a1.191 1.191 0 011.169 1.191c0 .66-1.13 1.192-1.772 1.192H9.249c-.66 0-1.772-.532-1.772-1.192 0-.658.534-1.192 1.192-1.192zm5.364 1.493c0 .164.266.297.594.297h3.579c.328 0 .594-.133.594-.297s-.266-.301-.594-.301h-3.597c-.341 0-.594.133-.594.301zm-1.634-7.017l.837-.842a.59.59 0 01.838 0l1.099 1.103 3.544-3.544a.588.588 0 01.838 0l.842.842a.597.597 0 010 .842l-4.611 4.625a.586.586 0 01-.733.083l.002.001a.59.59 0 01-.558-.159l-2.095-2.104a.597.597 0 010-.846z"/></svg><svg viewBox="0 0 32 32" id="secur" xmlns="http://www.w3.org/2000/svg"><path fill="#fff" d="M16.022 1.329C24.115 1.342 30.671 7.905 30.671 16c0 8.103-6.568 14.671-14.671 14.671S1.329 24.103 1.329 16 7.897 1.329 16 1.329h.023-.001z"/><path fill="#fed136" d="M16.022 32h-.018c-8.837 0-16-7.163-16-16s7.163-16 16-16 16 7.163 16 16c-.013 8.825-7.158 15.977-15.98 16h-.002zm0-29.342h-.018C8.635 2.658 2.662 8.631 2.662 16s5.973 13.342 13.342 13.342c7.369 0 13.342-5.974 13.342-13.342-.01-7.358-5.967-13.322-13.323-13.342h-.002z"/><path fill="#fed136" d="M15.885 6.839c2.281 0 4.133 1.621 4.133 3.619v4.133h.514c.856 0 1.55.694 1.55 1.55v5.688a1.55 1.55 0 01-1.55 1.55H11.23a1.55 1.55 0 01-1.55-1.55v-5.688c0-.856.694-1.55 1.55-1.55h.518v-4.133c0-1.998 1.852-3.619 4.137-3.619zm-2.078 3.619v3.634c0 .186.043.362.118.519l-.003-.007h3.903c.075-.15.121-.326.124-.513v-3.633c0-.855-.926-1.55-2.069-1.55s-2.073.695-2.073 1.55zm1.032 10.335a1.038 1.038 0 002.068.003V20a2.07 2.07 0 10-2.079-.005l.01.005z"/></svg></svg>